<svg id="Layer_1" data-name="Layer 1" xmlns="http://www.w3.org/2000/svg" viewBox="0 0 1000 146"><defs><style>.cls-1{fill:#fff;}.cls-2{fill:#2e3137;}.cls-3{fill:#d3ccbc;}.cls-4{fill:#aeccbc;}.cls-5{fill:#dab6bc;}</style></defs><title>deep-confluence</title><rect class="cls-1" width="1000" height="146"/><rect class="cls-2" x="382" width="236" height="120.03"/><path class="cls-3" d="M408.21,66.31V56.12q4.63,0,7-2.74t2.34-12.13A77,77,0,0,1,418,30.62a11.18,11.18,0,0,1,2.57-5.8,11.51,11.51,0,0,1,5.27-3.38,31.17,31.17,0,0,1,9.13-1h2.25V30.55q-6.16,0-7.37,1.27t-1.3,5Q428.34,47,427.94,50a17.3,17.3,0,0,1-1.87,5.84,15.13,15.13,0,0,1-5.46,5.33,14.67,14.67,0,0,1,5.5,5.48q1.72,3.19,2,9.17l.64,12.36a4,4,0,0,0,1.83,2.7q1.44.91,6.63.91V102H435q-6.8,0-10.49-1.55a10,10,0,0,1-5.35-5.08q-1.66-3.53-1.66-11.38,0-8.66-.59-11.08a10.86,10.86,0,0,0-2.29-4.44Q412.92,66.48,408.21,66.31Z" transform="translate(0 0)"/><path class="cls-4" d="M440.36,66.31V56.12q4.63,0,7-2.74t2.34-12.13a77,77,0,0,1,.53-10.64,11.18,11.18,0,0,1,2.57-5.8A11.51,11.51,0,0,1,458,21.44a31.17,31.17,0,0,1,9.13-1h2.25V30.55q-6.16,0-7.37,1.27t-1.3,5Q460.49,47,460.09,50a17.3,17.3,0,0,1-1.87,5.84,15.13,15.13,0,0,1-5.46,5.33,14.67,14.67,0,0,1,5.5,5.48q1.72,3.19,2,9.17l.64,12.36a4,4,0,0,0,1.83,2.7q1.44.91,6.63.91V102h-2.21q-6.8,0-10.49-1.55a10,10,0,0,1-5.35-5.08q-1.66-3.53-1.66-11.38,0-8.66-.59-11.08a10.86,10.86,0,0,0-2.29-4.44Q445.07,66.48,440.36,66.31Z" transform="translate(0 0)"/><path class="cls-5" d="M472.51,66.31V56.12q4.63,0,7-2.74t2.34-12.13a77,77,0,0,1,.53-10.64,11.18,11.18,0,0,1,2.57-5.8,11.51,11.51,0,0,1,5.27-3.38,31.17,31.17,0,0,1,9.13-1h2.25V30.55q-6.16,0-7.37,1.27t-1.3,5Q492.64,47,492.24,50a17.3,17.3,0,0,1-1.87,5.84,15.13,15.13,0,0,1-5.46,5.33,14.67,14.67,0,0,1,5.5,5.48q1.72,3.19,2,9.17l.64,12.36a4,4,0,0,0,1.83,2.7q1.44.91,6.63.91V102h-2.21q-6.8,0-10.49-1.55a10,10,0,0,1-5.35-5.08q-1.66-3.53-1.66-11.38,0-8.66-.59-11.08a10.86,10.86,0,0,0-2.29-4.44Q477.22,66.48,472.51,66.31Z" transform="translate(0 0)"/><path class="cls-5" d="M530.58,66.31q-4.63,0-7,2.76t-2.34,12.06a80.64,80.64,0,0,1-.51,10.68,11,11,0,0,1-2.55,5.8A11.52,11.52,0,0,1,513,101a31.17,31.17,0,0,1-9.13,1h-2.25V91.84q5.9,0,7.24-1.23t1.42-5a126.16,126.16,0,0,1,.79-14,16.7,16.7,0,0,1,2.12-5.75,13.6,13.6,0,0,1,5-4.67,16.63,16.63,0,0,1-5.1-4.67,14.24,14.24,0,0,1-2-5,79.07,79.07,0,0,1-.76-10,57.86,57.86,0,0,0-.59-8.39,3.4,3.4,0,0,0-1.63-1.83q-1.3-.76-6.6-.76V20.4h2.25q6.79,0,10.49,1.55A10,10,0,0,1,519.62,27q1.66,3.53,1.66,11.38,0,9,.66,11.34A11,11,0,0,0,524.27,54q1.68,1.93,6.31,2.1Z" transform="translate(0 0)"/><path class="cls-4" d="M559.6,66.31q-4.63,0-7,2.76T550.3,81.13a80.64,80.64,0,0,1-.51,10.68,11,11,0,0,1-2.55,5.8A11.52,11.52,0,0,1,542,101a31.18,31.18,0,0,1-9.13,1h-2.25V91.84q5.9,0,7.24-1.23t1.42-5a126.21,126.21,0,0,1,.79-14,16.71,16.71,0,0,1,2.12-5.75,13.6,13.6,0,0,1,5-4.67,16.63,16.63,0,0,1-5.1-4.67,14.23,14.23,0,0,1-2-5,79.07,79.07,0,0,1-.76-10,58,58,0,0,0-.59-8.39,3.4,3.4,0,0,0-1.64-1.83q-1.3-.76-6.6-.76V20.4h2.25q6.79,0,10.49,1.55A10,10,0,0,1,548.64,27q1.66,3.53,1.66,11.38,0,9,.66,11.34A11,11,0,0,0,553.29,54Q555,56,559.6,56.12Z" transform="translate(0 0)"/><path class="cls-3" d="M591.75,66.31q-4.63,0-7,2.76t-2.34,12.06a80.64,80.64,0,0,1-.51,10.68,11,11,0,0,1-2.55,5.8,11.52,11.52,0,0,1-5.27,3.38,31.18,31.18,0,0,1-9.13,1h-2.25V91.84q5.9,0,7.24-1.23t1.42-5a126.21,126.21,0,0,1,.79-14,16.71,16.71,0,0,1,2.12-5.75,13.6,13.6,0,0,1,5-4.67,16.63,16.63,0,0,1-5.1-4.67,14.23,14.23,0,0,1-2-5,79.07,79.07,0,0,1-.76-10,58,58,0,0,0-.59-8.39,3.4,3.4,0,0,0-1.64-1.83q-1.3-.76-6.6-.76V20.4h2.25q6.79,0,10.49,1.55A10,10,0,0,1,580.79,27q1.66,3.53,1.66,11.38,0,9,.66,11.34A11,11,0,0,0,585.44,54q1.68,1.93,6.31,2.1Z" transform="translate(0 0)"/></svg>